<svg width="512" height="512" viewBox="0 0 512 512" fill="none" xmlns="http://www.w3.org/2000/svg">
<g id="logo">
<g id="flat">
<path id="Vector" d="M17.5342 338.622H35.0682V377.091H17.5342V338.622Z" fill="#7C687A"/>
<path id="Vector_2" d="M0 333.256H70.136V350.79H0V333.256Z" fill="#735983"/>
<path id="cannon-back" d="M49.3145 263.12L17.5342 284.307L49.3145 316.088L81.0949 294.901L49.3145 263.12Z" fill="#815C7D"/>
<path id="Vector_3" d="M43.8348 333.256V306.955L70.1358 289.421H87.6698L105.204 306.955V333.256H43.8348Z" fill="#5E3B59"/>
<path id="Vector_4" d="M429.583 455.994H61.369C55.7185 456.11 50.1684 454.491 45.466 451.356C40.7635 448.221 37.1346 443.72 35.068 438.46L26.301 403.392H0V368.324H508.486L464.651 403.392L455.884 429.693C453.771 442.379 442.444 455.994 429.583 455.994Z" fill="#7C687A"/>
<g id="cannon">
<path id="Vector_5" d="M457.939 309.148L493.008 274.079L505.406 286.478L470.337 321.546L457.939 309.148Z" fill="#735983"/>
<path id="Vector_6" d="M405.474 347.708L455.375 297.807L481.678 324.11L431.777 374.011L405.474 347.708Z" fill="#5D3B59"/>
</g>
<path id="Vector_7" d="M0 368.324V403.392H26.301H464.651L508.486 368.324H0Z" fill="#574855"/>
<path id="Vector_8" d="M341.913 368.324H52.6019L70.1359 333.256H324.379L341.913 368.324Z" fill="#815C7D"/>
<path id="Vector_9" d="M359.447 368.324V342.023L376.981 324.489H412.049L455.884 368.324H359.447Z" fill="#815C7D"/>
<path id="Vector_10" d="M298.078 333.256H122.738L140.272 280.654H280.544L298.078 333.256Z" fill="#574855"/>
<path id="Vector_11" d="M157.806 245.586H245.476V280.654H157.806V245.586Z" fill="#5E3B59"/>
<path id="Vector_12" d="M184.107 140.383H219.175V245.587H184.107V140.383Z" fill="#815C7D"/>
<path id="Vector_13" d="M153.423 165.587H249.86V183.121H153.423V165.587Z" fill="#735983"/>
<path id="out1" d="M184.107 56H197.257V105.314H184.107V56Z" fill="#735983"/>
<path id="out2" d="M206.024 56H219.175V105.314H206.024V56Z" fill="#735983"/>
<path id="Vector_14" d="M219.175 140.382H184.107L166.573 105.314H236.709L219.175 140.382Z" fill="#5E3B59"/>
<g id="Windows">
<path id="window" d="M175.34 323.393C185.024 323.393 192.874 315.543 192.874 305.859C192.874 296.176 185.024 288.325 175.34 288.325C165.656 288.325 157.806 296.176 157.806 305.859C157.806 315.543 165.656 323.393 175.34 323.393Z" fill="#BAB9B0"/>
<path id="window_2" d="M245.476 323.393C255.16 323.393 263.01 315.543 263.01 305.859C263.01 296.176 255.16 288.325 245.476 288.325C235.792 288.325 227.942 296.176 227.942 305.859C227.942 315.543 235.792 323.393 245.476 323.393Z" fill="#BAB9B0"/>
</g>
</g>
</g>
</svg>
